<mxfile host="app.diagrams.net" modified="2023-10-27T19:08:27.571Z" agent="Mozilla/5.0 (X11; Linux x86_64) AppleWebKit/537.36 (KHTML, like Gecko) Chrome/118.0.0.0 Safari/537.36" etag="VLFTkaQL9kI6j_FAOGyR" version="22.0.8" type="device">
  <diagram id="xoZ6_kyMP5s1tSsMBDnF" name="Page-1">
    <mxGraphModel dx="1114" dy="610" grid="1" gridSize="10" guides="1" tooltips="1" connect="1" arrows="1" fold="1" page="1" pageScale="1" pageWidth="827" pageHeight="1169" math="0" shadow="0">
      <root>
        <mxCell id="0" />
        <mxCell id="1" parent="0" />
        <mxCell id="8G38anYATPkuLIfg5n-N-66" value="" style="rounded=0;whiteSpace=wrap;html=1;sketch=0;strokeWidth=1;fontSize=12;movable=1;resizable=1;rotatable=1;deletable=1;editable=1;locked=0;connectable=1;" parent="1" vertex="1">
          <mxGeometry x="80" y="130" width="630" height="360" as="geometry" />
        </mxCell>
        <mxCell id="8G38anYATPkuLIfg5n-N-67" value="&amp;lt;&amp;lt;system&amp;gt;&amp;gt;" style="text;html=1;strokeColor=none;fillColor=none;align=center;verticalAlign=middle;whiteSpace=wrap;rounded=0;" parent="1" vertex="1">
          <mxGeometry x="350" y="140" width="110" height="20" as="geometry" />
        </mxCell>
        <mxCell id="8G38anYATPkuLIfg5n-N-68" value="&lt;b&gt;Highlight Recording System&lt;/b&gt;" style="text;html=1;strokeColor=none;fillColor=none;align=center;verticalAlign=middle;whiteSpace=wrap;rounded=0;" parent="1" vertex="1">
          <mxGeometry x="350" y="160" width="110" height="20" as="geometry" />
        </mxCell>
        <mxCell id="8G38anYATPkuLIfg5n-N-70" value="" style="rounded=0;orthogonalLoop=1;jettySize=auto;html=1;endArrow=halfCircle;endFill=0;endSize=6;strokeWidth=1;fontSize=12;" parent="1" source="8G38anYATPkuLIfg5n-N-30" edge="1">
          <mxGeometry relative="1" as="geometry">
            <mxPoint x="340" y="305" as="sourcePoint" />
            <mxPoint x="280" y="310" as="targetPoint" />
          </mxGeometry>
        </mxCell>
        <mxCell id="8G38anYATPkuLIfg5n-N-94" value="Programming&lt;br&gt;Interface" style="edgeLabel;html=1;align=center;verticalAlign=middle;resizable=0;points=[];fontSize=12;" parent="8G38anYATPkuLIfg5n-N-70" vertex="1" connectable="0">
          <mxGeometry x="0.5186" relative="1" as="geometry">
            <mxPoint x="50" y="-9" as="offset" />
          </mxGeometry>
        </mxCell>
        <mxCell id="dzfhvOX5EP43lga_mxgl-6" style="edgeStyle=orthogonalEdgeStyle;rounded=0;orthogonalLoop=1;jettySize=auto;html=1;endArrow=none;endFill=0;" edge="1" parent="1" source="8G38anYATPkuLIfg5n-N-71" target="8G38anYATPkuLIfg5n-N-13">
          <mxGeometry relative="1" as="geometry" />
        </mxCell>
        <mxCell id="8G38anYATPkuLIfg5n-N-71" value="" style="ellipse;whiteSpace=wrap;html=1;fontFamily=Helvetica;fontSize=12;fontColor=#000000;align=center;strokeColor=#000000;fillColor=#ffffff;points=[];aspect=fixed;resizable=0;sketch=0;" parent="1" vertex="1">
          <mxGeometry x="275" y="305" width="10" height="10" as="geometry" />
        </mxCell>
        <mxCell id="8G38anYATPkuLIfg5n-N-73" value="" style="rounded=0;whiteSpace=wrap;html=1;sketch=0;strokeWidth=1;fontSize=12;" parent="1" vertex="1">
          <mxGeometry x="75" y="385" width="10" height="10" as="geometry" />
        </mxCell>
        <mxCell id="8G38anYATPkuLIfg5n-N-81" value="" style="rounded=0;orthogonalLoop=1;jettySize=auto;html=1;endArrow=none;endFill=0;strokeWidth=1;fontSize=12;exitX=1;exitY=0.5;exitDx=0;exitDy=0;" parent="1" source="8G38anYATPkuLIfg5n-N-73" target="8G38anYATPkuLIfg5n-N-83" edge="1">
          <mxGeometry relative="1" as="geometry">
            <mxPoint x="130" y="410" as="sourcePoint" />
          </mxGeometry>
        </mxCell>
        <mxCell id="8G38anYATPkuLIfg5n-N-82" value="" style="rounded=0;orthogonalLoop=1;jettySize=auto;html=1;endArrow=halfCircle;endFill=0;entryX=0.5;entryY=0.5;entryDx=0;entryDy=0;endSize=6;strokeWidth=1;fontSize=12;exitX=0;exitY=0.25;exitDx=0;exitDy=0;" parent="1" source="8G38anYATPkuLIfg5n-N-33" target="8G38anYATPkuLIfg5n-N-83" edge="1">
          <mxGeometry relative="1" as="geometry">
            <mxPoint x="170" y="410" as="sourcePoint" />
          </mxGeometry>
        </mxCell>
        <mxCell id="8G38anYATPkuLIfg5n-N-95" value="User&lt;br&gt;Interface" style="edgeLabel;html=1;align=center;verticalAlign=middle;resizable=0;points=[];fontSize=12;" parent="8G38anYATPkuLIfg5n-N-82" vertex="1" connectable="0">
          <mxGeometry x="0.3801" relative="1" as="geometry">
            <mxPoint x="-16.9" y="25" as="offset" />
          </mxGeometry>
        </mxCell>
        <mxCell id="8G38anYATPkuLIfg5n-N-83" value="" style="ellipse;whiteSpace=wrap;html=1;fontFamily=Helvetica;fontSize=12;fontColor=#000000;align=center;strokeColor=#000000;fillColor=#ffffff;points=[];aspect=fixed;resizable=0;sketch=0;" parent="1" vertex="1">
          <mxGeometry x="140" y="385" width="10" height="10" as="geometry" />
        </mxCell>
        <mxCell id="8G38anYATPkuLIfg5n-N-88" style="edgeStyle=orthogonalEdgeStyle;rounded=0;orthogonalLoop=1;jettySize=auto;html=1;entryX=0;entryY=0.5;entryDx=0;entryDy=0;startArrow=none;startFill=0;startSize=6;endArrow=none;endFill=0;endSize=6;strokeWidth=1;fontSize=12;" parent="1" source="8G38anYATPkuLIfg5n-N-87" target="8G38anYATPkuLIfg5n-N-73" edge="1">
          <mxGeometry relative="1" as="geometry" />
        </mxCell>
        <mxCell id="8G38anYATPkuLIfg5n-N-92" value="User" style="edgeLabel;html=1;align=center;verticalAlign=middle;resizable=0;points=[];fontSize=12;" parent="8G38anYATPkuLIfg5n-N-88" vertex="1" connectable="0">
          <mxGeometry x="-0.7533" y="-1" relative="1" as="geometry">
            <mxPoint x="-11.08" y="24" as="offset" />
          </mxGeometry>
        </mxCell>
        <mxCell id="8G38anYATPkuLIfg5n-N-87" value="" style="ellipse;whiteSpace=wrap;html=1;aspect=fixed;" parent="1" vertex="1">
          <mxGeometry x="30" y="384.5" width="11" height="11" as="geometry" />
        </mxCell>
        <mxCell id="8G38anYATPkuLIfg5n-N-11" value="" style="group" parent="1" vertex="1" connectable="0">
          <mxGeometry x="500" y="190" width="160" height="80" as="geometry" />
        </mxCell>
        <mxCell id="8G38anYATPkuLIfg5n-N-1" value="" style="rounded=0;whiteSpace=wrap;html=1;" parent="8G38anYATPkuLIfg5n-N-11" vertex="1">
          <mxGeometry width="160" height="80" as="geometry" />
        </mxCell>
        <mxCell id="8G38anYATPkuLIfg5n-N-2" value="" style="shape=module;align=left;spacingLeft=20;align=center;verticalAlign=top;" parent="8G38anYATPkuLIfg5n-N-11" vertex="1">
          <mxGeometry x="100" y="15" width="50" height="50" as="geometry" />
        </mxCell>
        <mxCell id="8G38anYATPkuLIfg5n-N-9" value="&amp;lt;&amp;lt;component&amp;gt;&amp;gt;" style="text;html=1;strokeColor=none;fillColor=none;align=center;verticalAlign=middle;whiteSpace=wrap;rounded=0;" parent="8G38anYATPkuLIfg5n-N-11" vertex="1">
          <mxGeometry y="10" width="110" height="20" as="geometry" />
        </mxCell>
        <mxCell id="8G38anYATPkuLIfg5n-N-10" value="&lt;b&gt;API&lt;/b&gt;" style="text;html=1;strokeColor=none;fillColor=none;align=center;verticalAlign=middle;whiteSpace=wrap;rounded=0;" parent="8G38anYATPkuLIfg5n-N-11" vertex="1">
          <mxGeometry y="30" width="110" height="20" as="geometry" />
        </mxCell>
        <mxCell id="8G38anYATPkuLIfg5n-N-12" value="" style="group" parent="1" vertex="1" connectable="0">
          <mxGeometry x="200" y="190" width="160" height="80" as="geometry" />
        </mxCell>
        <mxCell id="8G38anYATPkuLIfg5n-N-13" value="" style="rounded=0;whiteSpace=wrap;html=1;" parent="8G38anYATPkuLIfg5n-N-12" vertex="1">
          <mxGeometry width="160" height="80" as="geometry" />
        </mxCell>
        <mxCell id="8G38anYATPkuLIfg5n-N-14" value="" style="shape=module;align=left;spacingLeft=20;align=center;verticalAlign=top;" parent="8G38anYATPkuLIfg5n-N-12" vertex="1">
          <mxGeometry x="100" y="15" width="50" height="50" as="geometry" />
        </mxCell>
        <mxCell id="8G38anYATPkuLIfg5n-N-15" value="&amp;lt;&amp;lt;component&amp;gt;&amp;gt;" style="text;html=1;strokeColor=none;fillColor=none;align=center;verticalAlign=middle;whiteSpace=wrap;rounded=0;" parent="8G38anYATPkuLIfg5n-N-12" vertex="1">
          <mxGeometry y="10" width="110" height="20" as="geometry" />
        </mxCell>
        <mxCell id="8G38anYATPkuLIfg5n-N-16" value="&lt;b&gt;AI Model&lt;/b&gt;" style="text;html=1;strokeColor=none;fillColor=none;align=center;verticalAlign=middle;whiteSpace=wrap;rounded=0;" parent="8G38anYATPkuLIfg5n-N-12" vertex="1">
          <mxGeometry y="30" width="110" height="20" as="geometry" />
        </mxCell>
        <mxCell id="8G38anYATPkuLIfg5n-N-22" value="" style="group" parent="1" vertex="1" connectable="0">
          <mxGeometry x="500" y="310" width="160" height="80" as="geometry" />
        </mxCell>
        <mxCell id="8G38anYATPkuLIfg5n-N-23" value="" style="rounded=0;whiteSpace=wrap;html=1;" parent="8G38anYATPkuLIfg5n-N-22" vertex="1">
          <mxGeometry width="160" height="80" as="geometry" />
        </mxCell>
        <mxCell id="8G38anYATPkuLIfg5n-N-24" value="" style="shape=module;align=left;spacingLeft=20;align=center;verticalAlign=top;" parent="8G38anYATPkuLIfg5n-N-22" vertex="1">
          <mxGeometry x="100" y="15" width="50" height="50" as="geometry" />
        </mxCell>
        <mxCell id="8G38anYATPkuLIfg5n-N-25" value="&amp;lt;&amp;lt;component&amp;gt;&amp;gt;" style="text;html=1;strokeColor=none;fillColor=none;align=center;verticalAlign=middle;whiteSpace=wrap;rounded=0;" parent="8G38anYATPkuLIfg5n-N-22" vertex="1">
          <mxGeometry y="10" width="110" height="20" as="geometry" />
        </mxCell>
        <mxCell id="8G38anYATPkuLIfg5n-N-26" value="&lt;b&gt;Database&lt;/b&gt;" style="text;html=1;strokeColor=none;fillColor=none;align=center;verticalAlign=middle;whiteSpace=wrap;rounded=0;" parent="8G38anYATPkuLIfg5n-N-22" vertex="1">
          <mxGeometry y="30" width="110" height="20" as="geometry" />
        </mxCell>
        <mxCell id="8G38anYATPkuLIfg5n-N-29" value="" style="group" parent="1" vertex="1" connectable="0">
          <mxGeometry x="200" y="350" width="160" height="80" as="geometry" />
        </mxCell>
        <mxCell id="8G38anYATPkuLIfg5n-N-30" value="" style="rounded=0;whiteSpace=wrap;html=1;" parent="8G38anYATPkuLIfg5n-N-29" vertex="1">
          <mxGeometry width="160" height="80" as="geometry" />
        </mxCell>
        <mxCell id="8G38anYATPkuLIfg5n-N-31" value="" style="shape=module;align=left;spacingLeft=20;align=center;verticalAlign=top;" parent="8G38anYATPkuLIfg5n-N-29" vertex="1">
          <mxGeometry x="100" y="15" width="50" height="50" as="geometry" />
        </mxCell>
        <mxCell id="8G38anYATPkuLIfg5n-N-32" value="&amp;lt;&amp;lt;component&amp;gt;&amp;gt;" style="text;html=1;strokeColor=none;fillColor=none;align=center;verticalAlign=middle;whiteSpace=wrap;rounded=0;" parent="8G38anYATPkuLIfg5n-N-29" vertex="1">
          <mxGeometry y="10" width="110" height="20" as="geometry" />
        </mxCell>
        <mxCell id="8G38anYATPkuLIfg5n-N-33" value="&lt;b&gt;Desktop&lt;br&gt;Application&lt;br&gt;&lt;/b&gt;" style="text;html=1;strokeColor=none;fillColor=none;align=center;verticalAlign=middle;whiteSpace=wrap;rounded=0;" parent="8G38anYATPkuLIfg5n-N-29" vertex="1">
          <mxGeometry y="30" width="110" height="40" as="geometry" />
        </mxCell>
        <mxCell id="8G38anYATPkuLIfg5n-N-44" value="" style="rounded=0;orthogonalLoop=1;jettySize=auto;html=1;endArrow=none;endFill=0;strokeWidth=1;fontSize=12;exitX=0.5;exitY=0;exitDx=0;exitDy=0;" parent="1" source="8G38anYATPkuLIfg5n-N-23" target="8G38anYATPkuLIfg5n-N-46" edge="1">
          <mxGeometry x="200" y="190" as="geometry">
            <mxPoint x="590" y="425" as="sourcePoint" />
          </mxGeometry>
        </mxCell>
        <mxCell id="8G38anYATPkuLIfg5n-N-45" value="" style="rounded=0;orthogonalLoop=1;jettySize=auto;html=1;endArrow=halfCircle;endFill=0;entryX=0.5;entryY=0.5;entryDx=0;entryDy=0;endSize=6;strokeWidth=1;fontSize=12;exitX=0.5;exitY=1;exitDx=0;exitDy=0;" parent="1" source="8G38anYATPkuLIfg5n-N-1" target="8G38anYATPkuLIfg5n-N-46" edge="1">
          <mxGeometry x="200" y="190" as="geometry">
            <mxPoint x="610" y="280" as="sourcePoint" />
          </mxGeometry>
        </mxCell>
        <mxCell id="8G38anYATPkuLIfg5n-N-63" value="Data" style="edgeLabel;html=1;align=center;verticalAlign=middle;resizable=0;points=[];fontSize=12;" parent="8G38anYATPkuLIfg5n-N-45" vertex="1" connectable="0">
          <mxGeometry x="-0.2083" relative="1" as="geometry">
            <mxPoint x="30" y="13.7" as="offset" />
          </mxGeometry>
        </mxCell>
        <mxCell id="8G38anYATPkuLIfg5n-N-46" value="" style="ellipse;whiteSpace=wrap;html=1;fontFamily=Helvetica;fontSize=12;fontColor=#000000;align=center;strokeColor=#000000;fillColor=#ffffff;points=[];aspect=fixed;resizable=0;sketch=0;" parent="1" vertex="1">
          <mxGeometry x="575" y="287.5" width="10" height="10" as="geometry" />
        </mxCell>
        <mxCell id="8G38anYATPkuLIfg5n-N-52" value="" style="rounded=0;orthogonalLoop=1;jettySize=auto;html=1;endArrow=none;endFill=0;strokeWidth=1;fontSize=12;exitX=0;exitY=0.5;exitDx=0;exitDy=0;edgeStyle=orthogonalEdgeStyle;" parent="1" source="8G38anYATPkuLIfg5n-N-10" target="8G38anYATPkuLIfg5n-N-54" edge="1">
          <mxGeometry x="200" y="190" as="geometry">
            <mxPoint x="430" y="345" as="sourcePoint" />
          </mxGeometry>
        </mxCell>
        <mxCell id="8G38anYATPkuLIfg5n-N-62" value="Programming&lt;br&gt;Interface" style="edgeLabel;html=1;align=center;verticalAlign=middle;resizable=0;points=[];fontSize=12;" parent="8G38anYATPkuLIfg5n-N-52" vertex="1" connectable="0">
          <mxGeometry x="0.8309" relative="1" as="geometry">
            <mxPoint y="48.89" as="offset" />
          </mxGeometry>
        </mxCell>
        <mxCell id="8G38anYATPkuLIfg5n-N-53" value="" style="rounded=0;orthogonalLoop=1;jettySize=auto;html=1;endArrow=halfCircle;endFill=0;entryX=0.5;entryY=0.5;entryDx=0;entryDy=0;endSize=6;strokeWidth=1;fontSize=12;edgeStyle=orthogonalEdgeStyle;" parent="1" edge="1">
          <mxGeometry x="200" y="190" as="geometry">
            <mxPoint x="360" y="389" as="sourcePoint" />
            <Array as="points">
              <mxPoint x="420" y="389" />
              <mxPoint x="420" y="389" />
            </Array>
            <mxPoint x="450" y="389" as="targetPoint" />
          </mxGeometry>
        </mxCell>
        <mxCell id="8G38anYATPkuLIfg5n-N-54" value="" style="ellipse;whiteSpace=wrap;html=1;fontFamily=Helvetica;fontSize=12;fontColor=#000000;align=center;strokeColor=#000000;fillColor=#ffffff;points=[];aspect=fixed;resizable=0;sketch=0;" parent="1" vertex="1">
          <mxGeometry x="445" y="384" width="10" height="10" as="geometry" />
        </mxCell>
      </root>
    </mxGraphModel>
  </diagram>
</mxfile>
